<?xml version="1.0" encoding="UTF-8"?>
<svg xmlns="http://www.w3.org/2000/svg" xmlns:xlink="http://www.w3.org/1999/xlink" xml:space="preserve" width="700" height="700" viewBox="0 0 700 700"><rect width="700" height="700" fill="#ffffff" x="0" y="0"/><g fill="#000000">
<g transform="translate(308,56) scale(4.8066666666667)"><circle cx="3" cy="3" r="3"/></g>
<g transform="translate(392,56) scale(4.8066666666667)"><circle cx="3" cy="3" r="3"/></g>
<g transform="translate(280,84) scale(4.8066666666667)"><circle cx="3" cy="3" r="3"/></g>
<g transform="translate(364,84) scale(4.8066666666667)"><circle cx="3" cy="3" r="3"/></g>
<g transform="translate(308,112) scale(4.8066666666667)"><circle cx="3" cy="3" r="3"/></g>
<g transform="translate(280,140) scale(4.8066666666667)"><circle cx="3" cy="3" r="3"/></g>
<g transform="translate(364,140) scale(4.8066666666667)"><circle cx="3" cy="3" r="3"/></g>
<g transform="translate(336,168) scale(4.8066666666667)"><path d="M6,6H0V3c0-1.7,1.3-3,3-3h0c1.7,0,3,1.3,3,3V6z"/></g>
<g transform="translate(392,168) scale(4.8066666666667)"><path d="M6,6H0V3c0-1.7,1.3-3,3-3h0c1.7,0,3,1.3,3,3V6z"/></g>
<g transform="translate(280,196) scale(4.8066666666667)"><path d="M6,6H0V3c0-1.7,1.3-3,3-3l3,0V6z"/></g>
<g transform="translate(308,196) scale(4.8066666666667)"><rect width="6" height="6"/></g>
<g transform="translate(336,196) scale(4.8066666666667)"><rect width="6" height="6"/></g>
<g transform="translate(392,196) scale(4.8066666666667)"><rect width="6" height="6"/></g>
<g transform="translate(280,224) scale(4.8066666666667)"><path d="M3,6L3,6C1.3,6,0,4.7,0,3V0h6v3C6,4.7,4.7,6,3,6z"/></g>
<g transform="translate(336,224) scale(4.8066666666667)"><rect width="6" height="6"/></g>
<g transform="translate(392,224) scale(4.8066666666667)"><path d="M3,6L3,6C1.3,6,0,4.7,0,3V0h6v3C6,4.7,4.7,6,3,6z"/></g>
<g transform="translate(336,252) scale(4.8066666666667)"><path d="M6,6H3C1.3,6,0,4.7,0,3V0l6,0V6z"/></g>
<g transform="translate(364,252) scale(4.8066666666667)"><path d="M6,6H0V0l3,0c1.7,0,3,1.3,3,3V6z"/></g>
<g transform="translate(56,280) scale(4.8066666666667)"><path d="M6,6H3C1.3,6,0,4.7,0,3v0c0-1.7,1.3-3,3-3h3C6,0,6,6,6,6z"/></g>
<g transform="translate(84,280) scale(4.8066666666667)"><rect width="6" height="6"/></g>
<g transform="translate(112,280) scale(4.8066666666667)"><rect width="6" height="6"/></g>
<g transform="translate(140,280) scale(4.8066666666667)"><rect width="6" height="6"/></g>
<g transform="translate(168,280) scale(4.8066666666667)"><path d="M6,6H0V0l3,0c1.7,0,3,1.3,3,3V6z"/></g>
<g transform="translate(224,280) scale(4.8066666666667)"><path d="M6,6H3C1.3,6,0,4.7,0,3v0c0-1.7,1.3-3,3-3h3C6,0,6,6,6,6z"/></g>
<g transform="translate(252,280) scale(4.8066666666667)"><rect width="6" height="6"/></g>
<g transform="translate(280,280) scale(4.8066666666667)"><rect width="6" height="6"/></g>
<g transform="translate(308,280) scale(4.8066666666667)"><path d="M6,6H0V0l3,0c1.7,0,3,1.3,3,3V6z"/></g>
<g transform="translate(364,280) scale(4.8066666666667)"><path d="M6,6H3C1.3,6,0,4.7,0,3V0l6,0V6z"/></g>
<g transform="translate(392,280) scale(4.8066666666667)"><rect width="6" height="6"/></g>
<g transform="translate(420,280) scale(4.8066666666667)"><path d="M3,6H0V0l3,0c1.7,0,3,1.3,3,3v0C6,4.7,4.7,6,3,6z"/></g>
<g transform="translate(476,280) scale(4.8066666666667)"><path d="M6,6H0V3c0-1.7,1.3-3,3-3h0c1.7,0,3,1.3,3,3V6z"/></g>
<g transform="translate(532,280) scale(4.8066666666667)"><path d="M6,6H0V3c0-1.7,1.3-3,3-3h0c1.7,0,3,1.3,3,3V6z"/></g>
<g transform="translate(588,280) scale(4.8066666666667)"><path d="M6,6H0V3c0-1.7,1.3-3,3-3h0c1.7,0,3,1.3,3,3V6z"/></g>
<g transform="translate(84,308) scale(4.8066666666667)"><rect width="6" height="6"/></g>
<g transform="translate(112,308) scale(4.8066666666667)"><path d="M3,6H0V0l6,0v3C6,4.7,4.7,6,3,6z"/></g>
<g transform="translate(168,308) scale(4.8066666666667)"><rect width="6" height="6"/></g>
<g transform="translate(196,308) scale(4.8066666666667)"><path d="M3,6H0V0l3,0c1.7,0,3,1.3,3,3v0C6,4.7,4.7,6,3,6z"/></g>
<g transform="translate(252,308) scale(4.8066666666667)"><rect width="6" height="6"/></g>
<g transform="translate(308,308) scale(4.8066666666667)"><path d="M3,6L3,6C1.3,6,0,4.7,0,3V0h6v3C6,4.7,4.7,6,3,6z"/></g>
<g transform="translate(448,308) scale(4.8066666666667)"><path d="M6,6H0V3c0-1.7,1.3-3,3-3l3,0V6z"/></g>
<g transform="translate(476,308) scale(4.8066666666667)"><rect width="6" height="6"/></g>
<g transform="translate(504,308) scale(4.8066666666667)"><rect width="6" height="6"/></g>
<g transform="translate(532,308) scale(4.8066666666667)"><rect width="6" height="6"/></g>
<g transform="translate(560,308) scale(4.8066666666667)"><rect width="6" height="6"/></g>
<g transform="translate(588,308) scale(4.8066666666667)"><rect width="6" height="6"/></g>
<g transform="translate(616,308) scale(4.8066666666667)"><path d="M3,6H0V0l3,0c1.7,0,3,1.3,3,3v0C6,4.7,4.7,6,3,6z"/></g>
<g transform="translate(56,336) scale(4.8066666666667)"><path d="M6,6H3C1.3,6,0,4.7,0,3v0c0-1.7,1.3-3,3-3h3C6,0,6,6,6,6z"/></g>
<g transform="translate(84,336) scale(4.8066666666667)"><path d="M3,6H0V0l6,0v3C6,4.7,4.7,6,3,6z"/></g>
<g transform="translate(140,336) scale(4.8066666666667)"><path d="M6,6H3C1.3,6,0,4.7,0,3v0c0-1.7,1.3-3,3-3h3C6,0,6,6,6,6z"/></g>
<g transform="translate(168,336) scale(4.8066666666667)"><path d="M3,6H0V0l6,0v3C6,4.7,4.7,6,3,6z"/></g>
<g transform="translate(224,336) scale(4.8066666666667)"><path d="M6,6H3C1.3,6,0,4.7,0,3v0c0-1.7,1.3-3,3-3h3C6,0,6,6,6,6z"/></g>
<g transform="translate(252,336) scale(4.8066666666667)"><rect width="6" height="6"/></g>
<g transform="translate(336,336) scale(4.8066666666667)"><path d="M6,6H0V3c0-1.7,1.3-3,3-3l3,0V6z"/></g>
<g transform="translate(364,336) scale(4.8066666666667)"><rect width="6" height="6"/></g>
<g transform="translate(392,336) scale(4.8066666666667)"><path d="M3,6H0V0l3,0c1.7,0,3,1.3,3,3v0C6,4.7,4.7,6,3,6z"/></g>
<g transform="translate(448,336) scale(4.8066666666667)"><path d="M3,6L3,6C1.3,6,0,4.7,0,3V0h6v3C6,4.7,4.7,6,3,6z"/></g>
<g transform="translate(560,336) scale(4.8066666666667)"><rect width="6" height="6"/></g>
<g transform="translate(588,336) scale(4.8066666666667)"><path d="M3,6H0V0l6,0v3C6,4.7,4.7,6,3,6z"/></g>
<g transform="translate(252,364) scale(4.8066666666667)"><path d="M3,6L3,6C1.3,6,0,4.7,0,3V0h6v3C6,4.7,4.7,6,3,6z"/></g>
<g transform="translate(308,364) scale(4.8066666666667)"><path d="M6,6H3C1.3,6,0,4.7,0,3v0c0-1.7,1.3-3,3-3h3C6,0,6,6,6,6z"/></g>
<g transform="translate(336,364) scale(4.8066666666667)"><path d="M3,6H0V0l6,0v3C6,4.7,4.7,6,3,6z"/></g>
<g transform="translate(420,364) scale(4.8066666666667)"><circle cx="3" cy="3" r="3"/></g>
<g transform="translate(504,364) scale(4.8066666666667)"><path d="M6,6H0V3c0-1.7,1.3-3,3-3l3,0V6z"/></g>
<g transform="translate(532,364) scale(4.8066666666667)"><rect width="6" height="6"/></g>
<g transform="translate(560,364) scale(4.8066666666667)"><path d="M3,6H0V0l6,0v3C6,4.7,4.7,6,3,6z"/></g>
<g transform="translate(84,392) scale(4.8066666666667)"><path d="M6,6H3C1.3,6,0,4.7,0,3v0c0-1.7,1.3-3,3-3h3C6,0,6,6,6,6z"/></g>
<g transform="translate(112,392) scale(4.8066666666667)"><rect width="6" height="6"/></g>
<g transform="translate(140,392) scale(4.8066666666667)"><path d="M3,6H0V0l3,0c1.7,0,3,1.3,3,3v0C6,4.7,4.7,6,3,6z"/></g>
<g transform="translate(224,392) scale(4.8066666666667)"><circle cx="3" cy="3" r="3"/></g>
<g transform="translate(280,392) scale(4.8066666666667)"><path d="M6,6H0V3c0-1.7,1.3-3,3-3h0c1.7,0,3,1.3,3,3V6z"/></g>
<g transform="translate(392,392) scale(4.8066666666667)"><circle cx="3" cy="3" r="3"/></g>
<g transform="translate(448,392) scale(4.8066666666667)"><circle cx="3" cy="3" r="3"/></g>
<g transform="translate(504,392) scale(4.8066666666667)"><rect width="6" height="6"/></g>
<g transform="translate(532,392) scale(4.8066666666667)"><rect width="6" height="6"/></g>
<g transform="translate(616,392) scale(4.8066666666667)"><path d="M6,6H0V3c0-1.7,1.3-3,3-3h0c1.7,0,3,1.3,3,3V6z"/></g>
<g transform="translate(280,420) scale(4.8066666666667)"><rect width="6" height="6"/></g>
<g transform="translate(308,420) scale(4.8066666666667)"><rect width="6" height="6"/></g>
<g transform="translate(336,420) scale(4.8066666666667)"><rect width="6" height="6"/></g>
<g transform="translate(364,420) scale(4.8066666666667)"><path d="M6,6H0V0l3,0c1.7,0,3,1.3,3,3V6z"/></g>
<g transform="translate(420,420) scale(4.8066666666667)"><circle cx="3" cy="3" r="3"/></g>
<g transform="translate(476,420) scale(4.8066666666667)"><path d="M6,6H0V3c0-1.7,1.3-3,3-3l3,0V6z"/></g>
<g transform="translate(504,420) scale(4.8066666666667)"><rect width="6" height="6"/></g>
<g transform="translate(532,420) scale(4.8066666666667)"><rect width="6" height="6"/></g>
<g transform="translate(560,420) scale(4.8066666666667)"><path d="M6,6H0V0l3,0c1.7,0,3,1.3,3,3V6z"/></g>
<g transform="translate(616,420) scale(4.8066666666667)"><path d="M3,6L3,6C1.3,6,0,4.7,0,3V0h6v3C6,4.7,4.7,6,3,6z"/></g>
<g transform="translate(280,448) scale(4.8066666666667)"><path d="M3,6L3,6C1.3,6,0,4.7,0,3V0h6v3C6,4.7,4.7,6,3,6z"/></g>
<g transform="translate(336,448) scale(4.8066666666667)"><path d="M6,6H3C1.3,6,0,4.7,0,3V0l6,0V6z"/></g>
<g transform="translate(364,448) scale(4.8066666666667)"><rect width="6" height="6"/></g>
<g transform="translate(392,448) scale(4.8066666666667)"><path d="M3,6H0V0l3,0c1.7,0,3,1.3,3,3v0C6,4.7,4.7,6,3,6z"/></g>
<g transform="translate(476,448) scale(4.8066666666667)"><path d="M3,6L3,6C1.3,6,0,4.7,0,3V0h6v3C6,4.7,4.7,6,3,6z"/></g>
<g transform="translate(560,448) scale(4.8066666666667)"><rect width="6" height="6"/></g>
<g transform="translate(588,448) scale(4.8066666666667)"><path d="M3,6H0V0l3,0c1.7,0,3,1.3,3,3v0C6,4.7,4.7,6,3,6z"/></g>
<g transform="translate(308,476) scale(4.8066666666667)"><circle cx="3" cy="3" r="3"/></g>
<g transform="translate(364,476) scale(4.8066666666667)"><rect width="6" height="6"/></g>
<g transform="translate(504,476) scale(4.8066666666667)"><path d="M6,6H0V3c0-1.7,1.3-3,3-3l3,0V6z"/></g>
<g transform="translate(532,476) scale(4.8066666666667)"><rect width="6" height="6"/></g>
<g transform="translate(560,476) scale(4.8066666666667)"><path d="M3,6H0V0l6,0v3C6,4.7,4.7,6,3,6z"/></g>
<g transform="translate(616,476) scale(4.8066666666667)"><path d="M6,6H0V3c0-1.7,1.3-3,3-3h0c1.7,0,3,1.3,3,3V6z"/></g>
<g transform="translate(280,504) scale(4.8066666666667)"><path d="M6,6H0V3c0-1.7,1.3-3,3-3h0c1.7,0,3,1.3,3,3V6z"/></g>
<g transform="translate(364,504) scale(4.8066666666667)"><path d="M3,6L3,6C1.3,6,0,4.7,0,3V0h6v3C6,4.7,4.7,6,3,6z"/></g>
<g transform="translate(420,504) scale(4.8066666666667)"><path d="M6,6H3C1.3,6,0,4.7,0,3v0c0-1.7,1.3-3,3-3h3C6,0,6,6,6,6z"/></g>
<g transform="translate(448,504) scale(4.8066666666667)"><path d="M6,6H0V0l3,0c1.7,0,3,1.3,3,3V6z"/></g>
<g transform="translate(504,504) scale(4.8066666666667)"><rect width="6" height="6"/></g>
<g transform="translate(532,504) scale(4.8066666666667)"><path d="M3,6H0V0l6,0v3C6,4.7,4.7,6,3,6z"/></g>
<g transform="translate(588,504) scale(4.8066666666667)"><path d="M6,6H3C1.3,6,0,4.7,0,3v0c0-1.7,1.3-3,3-3h3C6,0,6,6,6,6z"/></g>
<g transform="translate(616,504) scale(4.8066666666667)"><path d="M3,6H0V0l6,0v3C6,4.7,4.7,6,3,6z"/></g>
<g transform="translate(280,532) scale(4.8066666666667)"><rect width="6" height="6"/></g>
<g transform="translate(336,532) scale(4.8066666666667)"><path d="M6,6H0V3c0-1.7,1.3-3,3-3h0c1.7,0,3,1.3,3,3V6z"/></g>
<g transform="translate(448,532) scale(4.8066666666667)"><path d="M6,6H3C1.3,6,0,4.7,0,3V0l6,0V6z"/></g>
<g transform="translate(476,532) scale(4.8066666666667)"><rect width="6" height="6"/></g>
<g transform="translate(504,532) scale(4.8066666666667)"><path d="M3,6H0V0l6,0v3C6,4.7,4.7,6,3,6z"/></g>
<g transform="translate(560,532) scale(4.8066666666667)"><path d="M6,6H0V3c0-1.7,1.3-3,3-3h0c1.7,0,3,1.3,3,3V6z"/></g>
<g transform="translate(280,560) scale(4.8066666666667)"><rect width="6" height="6"/></g>
<g transform="translate(308,560) scale(4.8066666666667)"><rect width="6" height="6"/></g>
<g transform="translate(336,560) scale(4.8066666666667)"><rect width="6" height="6"/></g>
<g transform="translate(364,560) scale(4.8066666666667)"><rect width="6" height="6"/></g>
<g transform="translate(392,560) scale(4.8066666666667)"><rect width="6" height="6"/></g>
<g transform="translate(420,560) scale(4.8066666666667)"><path d="M3,6H0V0l3,0c1.7,0,3,1.3,3,3v0C6,4.7,4.7,6,3,6z"/></g>
<g transform="translate(476,560) scale(4.8066666666667)"><rect width="6" height="6"/></g>
<g transform="translate(560,560) scale(4.8066666666667)"><rect width="6" height="6"/></g>
<g transform="translate(280,588) scale(4.8066666666667)"><rect width="6" height="6"/></g>
<g transform="translate(336,588) scale(4.8066666666667)"><path d="M3,6L3,6C1.3,6,0,4.7,0,3V0h6v3C6,4.7,4.7,6,3,6z"/></g>
<g transform="translate(476,588) scale(4.8066666666667)"><rect width="6" height="6"/></g>
<g transform="translate(504,588) scale(4.8066666666667)"><path d="M6,6H0V0l3,0c1.7,0,3,1.3,3,3V6z"/></g>
<g transform="translate(560,588) scale(4.8066666666667)"><path d="M3,6L3,6C1.3,6,0,4.7,0,3V0h6v3C6,4.7,4.7,6,3,6z"/></g>
<g transform="translate(280,616) scale(4.8066666666667)"><path d="M6,6H3C1.3,6,0,4.7,0,3V0l6,0V6z"/></g>
<g transform="translate(308,616) scale(4.8066666666667)"><path d="M3,6H0V0l3,0c1.7,0,3,1.3,3,3v0C6,4.7,4.7,6,3,6z"/></g>
<g transform="translate(364,616) scale(4.8066666666667)"><circle cx="3" cy="3" r="3"/></g>
<g transform="translate(448,616) scale(4.8066666666667)"><path d="M6,6H3C1.3,6,0,4.7,0,3v0c0-1.7,1.3-3,3-3h3C6,0,6,6,6,6z"/></g>
<g transform="translate(476,616) scale(4.8066666666667)"><rect width="6" height="6"/></g>
<g transform="translate(504,616) scale(4.8066666666667)"><rect width="6" height="6"/></g>
<g transform="translate(532,616) scale(4.8066666666667)"><path d="M3,6H0V0l3,0c1.7,0,3,1.3,3,3v0C6,4.7,4.7,6,3,6z"/></g>
<g transform="translate(588,616) scale(4.8066666666667)"><circle cx="3" cy="3" r="3"/></g>
<g transform="translate(56,56)"><g transform="scale(14)"><path d="M0,7L0,7c0,3.9,3.1,7,7,7h0c3.9,0,7-3.1,7-7v0c0-3.9-3.1-7-7-7h0C3.1,0,0,3.1,0,7z M7,12L7,12c-2.8,0-5-2.2-5-5v0 c0-2.8,2.2-5,5-5h0c2.8,0,5,2.2,5,5v0C12,9.8,9.8,12,7,12z"/></g></g>
<g transform="translate(448,56)"><g transform="scale(14)"><path d="M0,7L0,7c0,3.9,3.1,7,7,7h0c3.9,0,7-3.1,7-7v0c0-3.9-3.1-7-7-7h0C3.1,0,0,3.1,0,7z M7,12L7,12c-2.8,0-5-2.2-5-5v0 c0-2.8,2.2-5,5-5h0c2.8,0,5,2.2,5,5v0C12,9.8,9.8,12,7,12z"/></g></g>
<g transform="translate(56,448)"><g transform="scale(14)"><path d="M0,7L0,7c0,3.9,3.1,7,7,7h0c3.9,0,7-3.1,7-7v0c0-3.9-3.1-7-7-7h0C3.1,0,0,3.1,0,7z M7,12L7,12c-2.8,0-5-2.2-5-5v0 c0-2.8,2.2-5,5-5h0c2.8,0,5,2.2,5,5v0C12,9.8,9.8,12,7,12z"/></g></g>
<g transform="translate(112,112)"><g transform="scale(14)"><circle cx="3" cy="3" r="3"/></g></g>
<g transform="translate(504,112)"><g transform="scale(14)"><circle cx="3" cy="3" r="3"/></g></g>
<g transform="translate(112,504)"><g transform="scale(14)"><circle cx="3" cy="3" r="3"/></g></g>
</g></svg>