<?xml version="1.0" encoding="UTF-8" standalone="no"?><!DOCTYPE svg PUBLIC "-//W3C//DTD SVG 1.1//EN" "http://www.w3.org/Graphics/SVG/1.1/DTD/svg11.dtd"><svg width="100%" height="100%" viewBox="0 0 168 168" version="1.1" xmlns="http://www.w3.org/2000/svg" xmlns:xlink="http://www.w3.org/1999/xlink" xml:space="preserve" xmlns:serif="http://www.serif.com/" style="fill-rule:evenodd;clip-rule:evenodd;stroke-linecap:round;stroke-linejoin:round;stroke-miterlimit:1.5;"><path d="M168,34.57l-0,107.345c-0,13.192 -10.711,23.903 -23.904,23.903l-120.192,0c-13.193,0 -23.904,-10.711 -23.904,-23.903l0,-107.345c0,-13.192 10.711,-23.903 23.904,-23.903l120.192,-0c13.193,-0 23.904,10.711 23.904,23.903Z" style="fill:#1d3d30;stroke:#fff;stroke-width:15px;"/><path d="M84,25.91c17.359,0 28.98,12.476 29.027,29.138c0.17,60.014 -54.389,107.62 -63.326,93.336c-6.322,-10.105 17.943,-16.535 6.737,-93.336c-2.408,-16.501 10.203,-29.138 27.562,-29.138Z" style="fill:none;stroke:#fff;stroke-width:40px;"/><path d="M84,25.91c17.359,0 28.98,12.476 29.027,29.138c0.17,60.014 -54.389,107.62 -63.326,93.336c-6.322,-10.105 17.943,-16.535 6.737,-93.336c-2.408,-16.501 10.203,-29.138 27.562,-29.138Z" style="fill:none;stroke:#1d3d30;stroke-width:20px;"/><path d="M84,25.91c17.359,0 28.98,12.476 29.027,29.138c0.17,60.014 -54.389,107.62 -63.326,93.336c-6.322,-10.105 17.943,-16.535 6.737,-93.336c-2.408,-16.501 10.203,-29.138 27.562,-29.138Z" style="fill:#91c679;"/><path d="M66.441,-5.364c7.476,3.541 16.879,11.832 17.559,17.692c0.595,5.127 -0.144,5.596 -0,8.976" style="fill:none;"/><path d="M66.441,-5.364c7.476,3.541 16.879,11.832 17.559,17.692c0.595,5.127 -0.144,5.596 -0,8.976" style="fill:none;stroke:#1d3d30;stroke-width:10px;"/><path d="M73.421,133.682c11.465,-11.147 37.343,-47.784 32.382,-78.634" style="fill:none;stroke:#5a923e;stroke-width:7.76px;"/><path d="M71.353,37.969c-7.553,3.487 -9.444,10.504 -7.06,21.253c3.926,17.699 4.458,41.664 -2.764,68.743" style="fill:none;stroke:#b0d59d;stroke-width:7.76px;"/></svg>