<?xml version="1.0" encoding="iso-8859-1"?>
<!-- Uploaded to: SVG Repo, www.svgrepo.com, Generator: SVG Repo Mixer Tools -->
<svg height="800px" width="800px" version="1.1" id="Layer_1" xmlns="http://www.w3.org/2000/svg" xmlns:xlink="http://www.w3.org/1999/xlink" 
	 viewBox="0 0 512.001 512.001" xml:space="preserve">
<path style="fill:#4E901E;" d="M504.291,59.289c0.391-3.269-0.741-6.536-3.069-8.864l-28.619-28.619
	c-2.328-2.328-5.595-3.458-8.864-3.069c-3.269,0.391-6.177,2.26-7.891,5.071l-44.719,73.339c-2.579,4.23-1.929,9.675,1.575,13.178
	c3.503,3.503,8.948,4.154,13.178,1.575l73.338-44.719C502.031,65.467,503.9,62.558,504.291,59.289z"/>
<path style="fill:#47821C;" d="M437.19,54.461l-26.041,42.706c-2.579,4.23-1.929,9.675,1.575,13.178
	c3.503,3.503,8.948,4.154,13.178,1.575l42.505-25.918C459.076,71.107,442.966,59.095,437.19,54.461z"/>
<path style="fill:#FF3F62;" d="M397.22,315.501c-29.192,38.546-114.354,106.764-199.779,143.48
	c-84.909,38.922-170.082,46.341-187.391,14.235c-18.513-32.792,24.728-96.04,66.873-162.852
	c43.99-66.124,86.886-135.813,110.295-165.598c46.622-56.75,129.204-79.785,194.685-43.404
	C447.15,137.415,460.18,238.12,397.22,315.501z"/>
<g>
	<path style="fill:#FF0C38;" d="M239.783,197.323c44.702-54.413,122.455-77.794,186.504-47.56
		c-9.514-20.467-24.523-37.432-44.379-48.403c-65.481-36.381-148.062-13.346-194.685,43.404
		c-23.409,29.784-66.305,99.473-110.295,165.598c-42.146,66.812-85.387,130.06-66.874,162.852
		c7.002,12.987,25.111,19.505,49.814,20.087c7.391-34.535,38.783-81.495,69.619-130.379
		C173.478,296.797,216.373,227.108,239.783,197.323z"/>
	<path style="fill:#FF0C38;" d="M397.207,315.488c62.96-77.381,49.93-178.086-15.317-214.138
		c-65.159-36.202-147.236-13.558-193.98,42.582c0.372,0.395,0.728,0.804,1.111,1.188c8.295,8.295,19.266,13.733,30.899,15.315
		l49.158,6.668l-1.464,31.719c-0.675,14.608,4.717,29.064,14.892,39.767c0.267,0.278,0.537,0.555,0.809,0.826
		c10.16,10.16,23.644,15.786,37.969,15.845l36.405,0.15l4.461,45.503c0.574,5.854,3.263,20.824,15.807,33.369
		c0.002,0.002,0.002,0.002,0.004,0.004c0.484,0.484,1.004,0.918,1.503,1.381C386.621,328.364,392.611,321.557,397.207,315.488z"/>
	<path style="fill:#FF0C38;" d="M294.081,367.97c-2.437-3.44-1.809-8.165,1.576-10.68c5.249-3.9,10.487-7.926,15.568-11.964
		c3.302-2.623,8.102-2.074,10.726,1.225c2.624,3.301,2.075,8.102-1.225,10.725c-5.211,4.142-10.582,8.27-15.964,12.268
		C303.393,370.561,297.501,372.798,294.081,367.97z"/>
	<path style="fill:#FF0C38;" d="M178.034,434.081c-3.178-6.83,4.343-10.168,4.343-10.168c29.49-12.675,61.602-30.678,92.859-52.063
		c3.479-2.383,8.23-1.489,10.61,1.99c2.381,3.48,1.489,8.23-1.99,10.61c-32.061,21.933-65.07,40.431-95.458,53.492l-0.341,0.147
		C187.077,438.509,181.194,440.872,178.034,434.081z"/>
</g>
<path style="fill:#5EAC24;" d="M431.173,305.16c24.166-33.978,37.129-73.816,36.519-112.317
	c-0.611-38.508-14.42-73.188-38.888-97.656c-69.103-69.103-156.529-44.83-212.462-2.548c-5.811,4.393-8.398,11.856-6.553,18.903
	c1.846,7.047,7.761,12.282,14.979,13.263l64.688,8.774c0.06,0.008,16.944-0.363,16.431,16.434l-2.33,50.478
	c-0.226,4.896,1.555,9.67,4.932,13.223c3.394,3.542,8.058,5.57,12.957,5.59l54.231,0.223c2.019,0.039,14.735,0.902,16.269,16.545
	l6.012,61.339c0.416,4.241,3.88,14.876,15.419,16.08C426.356,314.847,430.457,306.313,431.173,305.16z"/>
<path style="fill:#4E901E;" d="M451.971,127.246c-6.086-11.93-13.848-22.739-23.167-32.057
	c-69.103-69.103-156.529-44.83-212.462-2.548c-5.811,4.393-8.398,11.856-6.553,18.903c1.846,7.047,7.761,12.282,14.979,13.263
	l64.688,8.774c0.034,0.005,5.365-0.109,9.948,2.757C343.755,111.007,400.295,99.375,451.971,127.246z"/>
<path d="M321.055,59.58c2.901-0.152,5.822-0.215,8.682-0.183c4.183,0.057,7.669-3.337,7.714-7.552
	c0.045-4.216-3.336-7.669-7.552-7.714c-3.18-0.033-6.421,0.035-9.64,0.203c-4.211,0.22-7.219,3.806-7.225,8.021
	C313.022,59.826,320.919,59.587,321.055,59.58z"/>
<path d="M506.62,45.029L478,16.409c-4.009-4.01-9.538-5.929-15.167-5.25c-5.628,0.673-10.55,3.834-13.503,8.675L416.247,74.09
	c-19.175-14.552-40.267-23.897-62.958-27.838c-4.155-0.726-8.106,2.061-8.827,6.214c-0.722,4.154,2.06,8.106,6.214,8.827
	c26.851,4.665,51.321,17.885,72.729,39.293c23.057,23.057,36.074,55.865,36.653,92.379c0.583,36.847-11.885,75.12-35.107,107.772
	c0,0-3.475,5.926-10.78,5.164c-7.699-0.803-8.605-9.149-8.614-9.232l-6.013-61.339c-1.782-18.176-15.749-23.281-23.722-23.432
	l-54.345-0.225c-2.791-0.011-5.515-1.192-7.456-3.216c-1.934-2.034-2.969-4.808-2.84-7.611l2.33-50.478l0.004-0.119
	c0.267-8.743-3.138-14.146-6.04-17.14c-6.047-6.235-14.313-7.074-17.451-7.153l-64.23-8.712c-4.172-0.567-7.556-3.563-8.623-7.633
	c-1.067-4.071,0.414-8.342,3.772-10.879c17.023-12.868,44.483-29.634,78.636-36.435c4.135-0.823,6.819-4.843,5.996-8.977
	s-4.838-6.819-8.977-5.996c-36.991,7.365-66.543,25.427-84.861,39.229c-18.563,13.987-8.543,29.506-8.013,30.721
	c-8.162,6.88-15.686,14.471-22.405,22.649l-0.104,0.128c-15.455,19.664-38.796,55.722-65.822,97.473
	c-14.504,22.406-29.5,45.574-44.828,68.614l-0.101,0.156c-3.086,4.893-88.229,124.774-67.1,170.615
	c7.485,16.238,29.701,24.069,60.369,24.069c32.494,0,94.696-15.726,136.805-35.018c50.333-21.644,94.127-51.355,122.429-71.903
	c50.61-36.743,80.999-74.778,81.374-75.248c16.394,7.426,28.709-1.704,33.243-9.495c24.972-35.225,38.371-76.616,37.738-116.589
	c-0.511-32.214-9.862-61.926-26.687-85.759l54.557-33.267c4.841-2.952,8.003-7.874,8.675-13.503
	C512.542,54.565,510.629,49.038,506.62,45.029z M194.428,451.968l-0.167,0.074c-40.551,18.589-81.914,30.337-116.47,33.082
	c-32.086,2.548-54.327-3.112-61.022-15.53l-0.071-0.13c-16.696-32.291,63.556-150.072,66.634-154.95
	c15.363-23.093,30.369-46.276,44.881-68.695c26.792-41.391,49.935-77.142,64.959-96.27c6.165-7.496,13.075-14.454,20.575-20.757
	c2.984,1.836,6.366,3.087,9.998,3.581l65.739,8.843c1.277,0,5.031,0.454,7.036,2.522c0.46,0.474,1.854,1.911,1.741,5.993
	l-2.327,50.412c-0.32,6.936,2.24,13.801,7.046,18.857c4.81,5.019,11.531,7.913,18.437,7.942l54.168,0.223
	c2.952,0.07,7.96,1.43,8.766,9.657l6.013,61.339c0.262,2.668,1.191,6.277,3.066,9.847
	C392.725,308.904,326.787,391.252,194.428,451.968z M496.712,58.383c-0.114,0.951-0.647,1.781-1.465,2.28L439.06,94.924
	c-1.573-1.754-3.191-3.467-4.858-5.133c-2.007-2.007-4.05-3.926-6.108-5.803l34.271-56.204c0.499-0.817,1.33-1.352,2.281-1.466
	c0.945-0.111,1.883,0.21,2.56,0.886l28.619,28.619C496.501,56.5,496.824,57.434,496.712,58.383z"/>
</svg>